
<svg width="700" height="430" viewBox="0 0 700 430" fill="none" xmlns="http://www.w3.org/2000/svg">
  <rect width="700" height="430" rx="20" fill="#0d1117"/>

  <text x="32" y="44" fill="#ffffff" font-size="24" font-weight="700" font-family="Arial, sans-serif">
    📊 Tech Stack
  </text>

  <text x="32" y="72" fill="#9ca3af" font-size="14" font-family="Arial, sans-serif">
    Gerado automaticamente com base nos meus repositórios do GitHub
  </text>

  
        <text x="32" y="112" fill="#ffffff" font-size="14" font-family="Arial, sans-serif">TypeScript</text>
        <rect x="180" y="99" width="380" height="15" rx="7.5" fill="#1f2937"/>
        <rect x="180" y="99" width="114" height="15" rx="7.5" fill="#22c55e"/>
        <text x="580" y="112" fill="#ffffff" font-size="14" font-family="Arial, sans-serif">30%</text>
      
        <text x="32" y="146" fill="#ffffff" font-size="14" font-family="Arial, sans-serif">Angular</text>
        <rect x="180" y="133" width="380" height="15" rx="7.5" fill="#1f2937"/>
        <rect x="180" y="133" width="79.8" height="15" rx="7.5" fill="#22c55e"/>
        <text x="580" y="146" fill="#ffffff" font-size="14" font-family="Arial, sans-serif">21%</text>
      
        <text x="32" y="180" fill="#ffffff" font-size="14" font-family="Arial, sans-serif">Node.js / Express</text>
        <rect x="180" y="167" width="380" height="15" rx="7.5" fill="#1f2937"/>
        <rect x="180" y="167" width="79.8" height="15" rx="7.5" fill="#22c55e"/>
        <text x="580" y="180" fill="#ffffff" font-size="14" font-family="Arial, sans-serif">21%</text>
      
        <text x="32" y="214" fill="#ffffff" font-size="14" font-family="Arial, sans-serif">HTML/CSS</text>
        <rect x="180" y="201" width="380" height="15" rx="7.5" fill="#1f2937"/>
        <rect x="180" y="201" width="64.6" height="15" rx="7.5" fill="#22c55e"/>
        <text x="580" y="214" fill="#ffffff" font-size="14" font-family="Arial, sans-serif">17%</text>
      
        <text x="32" y="248" fill="#ffffff" font-size="14" font-family="Arial, sans-serif">JavaScript</text>
        <rect x="180" y="235" width="380" height="15" rx="7.5" fill="#1f2937"/>
        <rect x="180" y="235" width="22.799999999999997" height="15" rx="7.5" fill="#22c55e"/>
        <text x="580" y="248" fill="#ffffff" font-size="14" font-family="Arial, sans-serif">6%</text>
      
        <text x="32" y="282" fill="#ffffff" font-size="14" font-family="Arial, sans-serif">Java</text>
        <rect x="180" y="269" width="380" height="15" rx="7.5" fill="#1f2937"/>
        <rect x="180" y="269" width="19" height="15" rx="7.5" fill="#22c55e"/>
        <text x="580" y="282" fill="#ffffff" font-size="14" font-family="Arial, sans-serif">5%</text>
      

  <rect x="32" y="365" width="636" height="1" fill="#30363d"/>

  <text x="32" y="395" fill="#9ca3af" font-size="13" font-family="Arial, sans-serif">
    ✔ 12 repositórios analisados
  </text>

  <text x="245" y="395" fill="#9ca3af" font-size="13" font-family="Arial, sans-serif">
    ✔ 0 projetos Spring Boot
  </text>

  <text x="480" y="395" fill="#9ca3af" font-size="13" font-family="Arial, sans-serif">
    ✔ 2 APIs detectadas
  </text>
</svg>
